# xmcd
#
# Track frame offsets: 
#        150
#        16997
#        35855
#        50542
#        71862
#        92080
#        111037
#        130257
#        147070
#        165677
#        177792
#
# Disc length: 2647 seconds
#
# Revision: 2
# Processed by: cddbd v1.5.2PL0 Copyright (c) Steve Scherf et al.
# Submitted via: ExactAudioCopy v0.95b4
#
DISCID=980a550b
DTITLE=Bonnie Raitt - Fundamental
DYEAR=1998
DGENRE=Rock
TTITLE0=The Fundamental Things
TTITLE1=Cure For Love
TTITLE2=Round and Round
TTITLE3=Spit Of Love
TTITLE4=Lover's Will
TTITLE5=Blue For No Reason
TTITLE6=Meet Me Half Way
TTITLE7=I'm On Your Side
TTITLE8=Fearless Love
TTITLE9=I Need Love
TTITLE10=One Belief Away
EXTD=Capitol - EMI, 7243 85639722
EXTT0=
EXTT1=
EXTT2=
EXTT3=
EXTT4=
EXTT5=
EXTT6=
EXTT7=
EXTT8=
EXTT9=
EXTT10=
PLAYORDER=
